
<svg xmlns="http://www.w3.org/2000/svg" width="150" height="35.05" viewBox="0 0 150 35.05"><defs><style>.a{fill:#333;}</style></defs><title>ruuvi-logo</title><path class="a" d="M134.58,4.64a14.22,14.22,0,1,1-14.22,14.22A14.19,14.19,0,0,1,134.58,4.64Zm0-3.3A17.52,17.52,0,1,0,152.1,18.86,17.55,17.55,0,0,0,134.58,1.34Z" transform="translate(-2.1 -1.34)"/><path class="a" d="M138.22,28.07a9.18,9.18,0,0,0,6.91-4.26,10.08,10.08,0,0,0,1-2.27,9.14,9.14,0,0,0-3-9.68,9.17,9.17,0,0,0-7.92-1.76l-.44.11a.71.71,0,0,0,.1.26,6.11,6.11,0,0,1,.51,1.68,8.08,8.08,0,0,1,0,1.69,6,6,0,0,1-3.68,4.69,6.17,6.17,0,0,1-3,.36l-.36-.05s0,.09,0,.51a9.15,9.15,0,0,0,8.38,8.73,13.8,13.8,0,0,0,1.58,0Z" transform="translate(-2.1 -1.34)"/><path class="a" d="M108.45,33.68a3.54,3.54,0,0,1-2.19-1,3.13,3.13,0,0,1-.69-1.4c-.11-.52-.09-.75-.09-6.38,0-6.75,0-6.13.37-7.11a3.35,3.35,0,0,1,1.3-1.32,4.25,4.25,0,0,1,2.49-.4,2.86,2.86,0,0,1,2.88,3c0,.38,0,2.55,0,6.21,0,5.59,0,5.33-.13,6a3.18,3.18,0,0,1-1.69,2.11,4.6,4.6,0,0,1-2.28.34Zm-46.94,0a11.85,11.85,0,0,1-8.43-3.93,11.67,11.67,0,0,1-3-6.09c-.2-1.16-.22-2-.2-9.42,0-7.94-.08-7.07.41-8.14a3.2,3.2,0,0,1,2.1-1.65,5.21,5.21,0,0,1,2.09,0,3.35,3.35,0,0,1,2.38,2.44c.08.29.09,1,.11,7.83l0,7.51a4.59,4.59,0,0,0,2.12,3.54,5.41,5.41,0,0,0,8.39-3.9c0-.28.05-3.11.05-7.55,0-7.87,0-7.46.33-8.18A3.36,3.36,0,0,1,70.1,4.4a5.75,5.75,0,0,1,2.06,0,3.43,3.43,0,0,1,1.48.81,3,3,0,0,1,1,1.77v7.79c0,8.75,0,8.3-.38,9.86a12,12,0,0,1-3.91,6.21,12.15,12.15,0,0,1-8.82,2.83Zm-56.43,0a3.53,3.53,0,0,1-2.19-1,4.17,4.17,0,0,1-.69-1.4c-.12-.57-.09-.83-.09-8,0-6,0-7.78.07-8.19A11.79,11.79,0,0,1,5.42,8.09,12,12,0,0,1,13.93,4.3a4.41,4.41,0,0,1,1.92.22,3.42,3.42,0,0,1,1.91,1.87A4.25,4.25,0,0,1,18,8.07,3,3,0,0,1,16,11a6.25,6.25,0,0,1-1.61.35A6.07,6.07,0,0,0,12,12,5.23,5.23,0,0,0,9.68,14.3a7,7,0,0,0-.4,1.13c-.11.64-.07,2-.09,7.82,0,6.77.06,7.29-.14,8a3.15,3.15,0,0,1-1.69,2.11A4.6,4.6,0,0,1,5.08,33.68Zm81.86-2.11c-.24-.49-9-22.68-9.11-23.11a2.79,2.79,0,0,1,0-1.73,3.68,3.68,0,0,1,2.69-2.42,4.1,4.1,0,0,1,2.55.28,3.55,3.55,0,0,1,1.18,1.17c.23.39.2.31,3.41,8.48C88.92,17.42,90,20,90,20s1.25-3.13,2.74-6.92c1.91-4.85,2.78-7,2.94-7.28a3.09,3.09,0,0,1,2-1.48,4.86,4.86,0,0,1,2.08.1,3.73,3.73,0,0,1,1.54,1,2.83,2.83,0,0,1,.83,1.39,2.77,2.77,0,0,1,0,1.62c-.1.41-8.78,22.48-9.12,23.16a3.23,3.23,0,0,1-6,0Z" transform="translate(-2.1 -1.34)"/><path class="a" d="M33.28,33.74a11.85,11.85,0,0,1-8.43-3.93,11.67,11.67,0,0,1-3-6.09c-.2-1.16-.22-2-.2-9.42,0-7.94-.08-7.07.41-8.14a3.2,3.2,0,0,1,2.1-1.65,5.21,5.21,0,0,1,2.09,0A3.35,3.35,0,0,1,28.65,7c.08.29.09,1,.11,7.83l0,7.51a4.6,4.6,0,0,0,2.12,3.54A5.57,5.57,0,0,0,36.8,26a5.35,5.35,0,0,0,2.5-4c0-.28.05-3.1.05-7.55,0-7.87,0-7.46.33-8.18a3.35,3.35,0,0,1,2.19-1.77,5.75,5.75,0,0,1,2.06,0,3.4,3.4,0,0,1,1.48.81,3,3,0,0,1,1,1.77v7.79c0,8.75,0,8.3-.38,9.86a12,12,0,0,1-3.91,6.21,12.15,12.15,0,0,1-8.82,2.83Z" transform="translate(-2.1 -1.34)"/><circle class="a" cx="106.83" cy="7.23" r="4.44"/></svg>