
<svg xmlns="http://www.w3.org/2000/svg" viewBox="0 0 1928.63 388.38"><defs><style>.a{fill:#fff;}</style></defs><title>web-ruuvi-logo-nega</title><path class="a" d="M1717.63,347C1610.7,347,1524,433.7,1524,540.67s86.66,193.7,193.59,193.71,193.6-86.67,193.63-193.63S1825,347.2,1718.22,347h-.59m40.06,320.51a123.36,123.36,0,0,1-123.33-122.17,84,84,0,0,0,27.39,4.51,85.43,85.43,0,0,0,74.42-127.32,127.35,127.35,0,0,1,21.51-2,123.41,123.41,0,0,1,0,246.83" transform="translate(17.41 -346.01)"/><path class="a" d="M1375.08,733.14c-10.88-1.07-22.46-6.66-28.68-13.65a40.93,40.93,0,0,1-9-18.36c-1.52-6.74-1.15-9.88-1.15-83.56,0-88.33,0-80.32,4.76-93.11a43.68,43.68,0,0,1,17-17.37,55.7,55.7,0,0,1,32.63-5.14c24.27,2.79,35.55,14.39,37.69,38.87.43,5,.61,33.45.53,81.41-.28,73.23-.28,69.79-1.7,78.7-3.67,13-10.8,22-22.12,27.66-7.37,3.68-19.44,5.47-29.84,4.49Zm-614.62,0c-43.61-2-81.38-19.76-110.33-51.38A152.59,152.59,0,0,1,611,602c-2.61-15.29-2.88-26.44-2.61-123.4.26-104-1-92.58,5.29-106.59a42.09,42.09,0,0,1,27.51-21.74,68.45,68.45,0,0,1,27.43.43,43.72,43.72,0,0,1,31.21,32c1,3.77,1.17,12.84,1.44,102.53l.43,98.4c1.09,20.43,13.59,37.54,27.79,46.42,22,15.65,54,14.92,77,1.17,19.16-12.86,30.38-31.85,32.73-52.19.43-3.77.71-40.74.71-99,0-103.17-.28-97.67,4.33-107.12A44,44,0,0,1,873,349.66a75.71,75.71,0,0,1,27,0,44.49,44.49,0,0,1,19.44,10.61c8,7.55,12.07,16.56,12.68,23.22v102c0,114.61.28,108.68-5,129.15A157.08,157.08,0,0,1,875.94,696C844.6,723,806.22,735.22,760.46,733.14Zm-738.82,0C10.68,732.08-1,726.48-7,719.49a53.12,53.12,0,0,1-9.07-18.36c-1.64-7.47-1.26-10.89-1.26-105,0-78.62.18-101.92.89-107.4C-12,452.87,2,422.91,26.14,397.86c30.2-31.48,67-47.86,111.38-49.56,12.15-.55,18,.16,25.08,2.79a45.1,45.1,0,0,1,24.91,24.46,55.35,55.35,0,0,1,3.24,22c-1.26,19.76-9.88,32.37-26.51,38.69a85.51,85.51,0,0,1-21.13,4.58c-14,1.7-21,3.68-31,8.81a68.16,68.16,0,0,0-30.22,29.5A91.51,91.51,0,0,0,76.67,494c-1.44,8.36-.89,26.79-1.26,102.36.55,88.7.81,95.52-1.8,104.61-3.67,13.12-10.71,21.85-22.12,27.66C44.14,732.33,32.15,734.13,21.64,733.14Zm1071.84-27.66c-3.16-6.38-117.72-297.09-119.24-302.76a37,37,0,0,1,0-22.59c4.68-15.29,18.88-28,35.24-31.75,10.88-2.33,24.65-.81,33.44,3.77a46.09,46.09,0,0,1,15.47,15.37c3,5,2.63,4.05,44.7,111.11,16.37,41.5,29.92,75.09,30.1,74.93s16.37-41,35.89-90.6c25-63.51,36.42-91.75,38.57-95.36a40.37,40.37,0,0,1,26-19.33,62.66,62.66,0,0,1,27.24,1.34A47.4,47.4,0,0,1,1281,362.49a36.56,36.56,0,0,1,10.88,18.26,36,36,0,0,1,0,21.22c-1.26,5.3-115,294.42-119.32,303.3-17.24,40.39-65.26,32.74-79.1.28Z" transform="translate(17.41 -346.01)"/><path class="a" d="M390.81,733.89c-43.59-2-81.28-19.62-110.33-51.38a153.7,153.7,0,0,1-39.11-79.69c-2.61-15.29-2.78-26.52-2.61-123.4.28-104-1-92.58,5.39-106.7a41.86,41.86,0,0,1,27.55-21.64,66.67,66.67,0,0,1,27.32.34,43.94,43.94,0,0,1,31.21,31.93c1.07,3.77,1.15,13,1.52,102.53l.38,98.5a60.21,60.21,0,0,0,27.79,46.4c22.12,15.57,53.92,14.94,77,1.17a67.17,67.17,0,0,0,25.89-28.41,68.83,68.83,0,0,0,6.93-23.85c.38-3.68.61-40.65.61-98.92,0-103.09-.26-97.71,4.33-107.14a43.85,43.85,0,0,1,28.68-23.22c6-1.7,21.13-1.7,27.06,0a45,45,0,0,1,19.34,10.71c7.9,7.49,12,16.56,12.66,23.22v101.9c0,114.61.28,108.68-4.92,129.15a157.36,157.36,0,0,1-51.16,81.49C475.09,723.7,436.69,736,390.81,733.89Z" transform="translate(17.41 -346.01)"/><path class="a" d="M1439.64,404.2a58.16,58.16,0,1,1,0-.06Z" transform="translate(17.41 -346.01)"/></svg>